<svg width="61" height="73" viewBox="0 0 61 73" fill="none" xmlns="http://www.w3.org/2000/svg">
<path d="M26.0218 14.4676L26.1005 3.50865C26.1022 3.27021 25.8403 3.1274 25.6433 3.26178C24.9079 3.76348 23.4448 4.80614 22.3865 5.84639C20.9176 7.29034 19.2789 9.28722 19.2789 9.28722C19.2789 9.28722 21.7188 10.7593 22.7575 11.6046C23.7961 12.4498 26.0218 14.4676 26.0218 14.4676Z" fill="white"/>
<path d="M26.0218 14.4678L25.8616 3.49833C25.8582 3.26097 26.1164 3.11572 26.3144 3.24662C27.0691 3.74549 28.5911 4.79863 29.6571 5.84655C31.1261 7.2905 32.7648 9.28737 32.7648 9.28737C32.7648 9.28737 30.3248 10.7595 29.2862 11.6047C28.2475 12.45 26.0218 14.4678 26.0218 14.4678Z" fill="white"/>
<path d="M24.2828 50.4341C21.6113 53.1927 14.1147 58.7101 14.1147 67.1239C14.1147 71.6757 7.94505 66.355 3.77064 58.7101C0.199751 52.1704 -0.942103 43.1918 0.806892 39.6753C0.806892 39.6753 4.57774 40.1384 8.82647 41.5374C16.7243 44.1379 27.1534 48.6853 24.2828 50.4341Z" fill="white"/>
<path d="M26.8511 50.4341C29.5226 53.1927 37.0192 58.7101 37.0192 67.1239C37.0192 71.6757 43.1889 66.355 47.3633 58.7101C50.9342 52.1704 52.076 43.1918 50.327 39.6753C50.327 39.6753 46.5562 40.1384 42.3074 41.5374C34.4096 44.1379 23.9805 48.6853 26.8511 50.4341Z" fill="white"/>
<path d="M18.8389 70.747L18.7413 70.7244C17.218 70.3707 16.2748 68.8433 16.641 67.3229L17.7108 62.8811C18.1673 60.9855 19.1195 59.2453 20.4699 57.8387L24.1694 53.9852C24.9645 53.157 26.292 53.1667 27.0749 54.0064L30.7071 57.9018C31.9819 59.269 32.8873 60.9386 33.3377 62.7528L34.4806 67.3559C34.8531 68.8563 33.9278 70.3719 32.4229 70.7262C27.9568 71.7776 23.3083 71.7847 18.8389 70.747Z" fill="white"/>
<path d="M38.8172 28.2253C43.8048 25.5571 46.8216 25.9902 46.8216 25.9902C46.8216 25.9902 47.8812 26.5623 48.5285 30.6551C49.1758 34.7479 49.1758 36.1414 49.1758 36.1414C49.1758 36.1414 45.421 36.3558 43.1043 37.0526C40.7896 37.7488 37.4047 39.6804 37.4047 39.6804C37.4047 39.6804 37.0575 38.536 35.1768 36.1414C33.2961 33.7469 32.4608 33.3475 32.4608 33.3475C32.4608 33.3475 33.8296 30.8935 38.8172 28.2253Z" fill="white"/>
<path d="M13.341 28.2253C8.35337 25.5571 5.33656 25.9902 5.33656 25.9902C5.33656 25.9902 4.277 26.5623 3.62966 30.6551C2.98233 34.7479 2.98233 36.1414 2.98233 36.1414C2.98233 36.1414 6.73714 36.3558 9.05385 37.0526C11.3686 37.7488 14.7535 39.6804 14.7535 39.6804C14.7535 39.6804 15.1007 38.536 16.9814 36.1414C18.8621 33.7469 19.6974 33.3475 19.6974 33.3475C19.6974 33.3475 18.3285 30.8935 13.341 28.2253Z" fill="white"/>
<path d="M26.0276 46.3274L18.0455 41.2432C18.0455 41.2432 19.8834 38.6724 22.1717 36.412C24.4599 34.1517 26.0276 33.7981 26.0276 33.7981C26.0276 33.7981 27.8304 34.1725 30.1949 36.412C32.5593 38.6515 33.9686 41.2432 33.9686 41.2432L26.0276 46.3274Z" fill="white" stroke="white"/>
<path d="M29.8571 22.3135C32.2215 24.5529 33.6412 27.0125 33.6412 27.0125C32.1689 28.2546 30.7792 29.627 29.5159 31.0812L28.5321 30.3781C28.1388 30.097 27.7031 29.8807 27.2414 29.7373C26.4497 29.4915 25.6032 29.4843 24.8075 29.7165L24.7435 29.7351C24.2474 29.8799 23.7781 30.1044 23.354 30.3998L22.3759 31.0812C21.1834 29.6159 19.8566 28.2654 18.4126 27.0472L18.3715 27.0125C18.3715 27.0125 19.8834 24.5738 22.1717 22.3135C22.5452 21.9445 22.8995 21.6123 23.2309 21.3147C24.8515 19.8596 27.1706 19.9044 28.8022 21.3471C29.1297 21.6368 29.4821 21.9583 29.8571 22.3135Z" fill="white"/>
<path d="M15.4193 25.0175C10.2889 21.9137 7.57324 21.9137 7.57324 21.9137C7.57324 21.9137 8.89323 18.3613 10.4963 15.7061C10.5875 15.5549 10.6784 15.4039 10.7686 15.2536C12.3541 12.611 15.7327 11.69 18.2497 13.4681C20.4282 15.007 22.65 16.6798 22.65 16.6798L15.4193 25.0175Z" fill="white"/>
<path d="M36.677 25.0175C41.8075 21.9137 44.5231 21.9137 44.5231 21.9137C44.5231 21.9137 43.2031 18.3613 41.6001 15.7061C41.5088 15.5549 41.4179 15.4039 41.3277 15.2536C39.7422 12.611 36.3637 11.69 33.8466 13.4681C31.6681 15.007 29.4463 16.6798 29.4463 16.6798L36.677 25.0175Z" fill="white"/>
<path d="M39.2923 1.70898L26.2375 3.35802L26.2375 7.77191C26.2375 7.77191 38.0837 12.0719 42.2841 11.8237C43.8142 11.7333 45.313 11.4345 46.6002 11.0911C48.764 10.5138 51.1623 11.4516 51.8939 13.5681C53.1142 17.0986 54.7886 22.7474 55.5993 29.0765C56.9592 39.6937 56.6628 61.5333 58.6533 53.8195C59.3252 51.2155 59.5435 47.4684 59.5378 43.6467C59.5227 33.4404 57.6238 23.3544 55.5681 13.3573C54.0181 5.81934 46.9273 0.744549 39.2923 1.70898Z" fill="white" stroke="white"/>
<path d="M40.8183 29.4314C46.484 29.4314 51.077 24.8384 51.077 19.1727C51.077 13.5069 46.484 8.91396 40.8183 8.91396C35.1526 8.91396 30.5596 13.5069 30.5596 19.1727C30.5596 24.8384 35.1526 29.4314 40.8183 29.4314ZM53.1469 19.1727C53.1469 25.9816 47.6272 31.5013 40.8183 31.5013C34.0094 31.5013 28.4897 25.9816 28.4897 19.1727C28.4897 12.3638 34.0094 6.84406 40.8183 6.84406C47.6272 6.84406 53.1469 12.3638 53.1469 19.1727Z" fill="white" stroke="#6B7682" stroke-width="1.5"/>
<rect x="40.9504" y="5.16262" width="0.857836" height="5.22874" rx="0.428918" fill="white" stroke="#6B7682" stroke-width="0.857836"/>
</svg>
